{"accessors" : [{"bufferView" : 0, "byteOffset" : 0, "componentType" : 5123, "count" : 618, "type" : "SCALAR", "max" : [495], "min" : [0]}, {"bufferView" : 1, "byteOffset" : 0, "componentType" : 5126, "count" : 496, "type" : "VEC3", "max" : [0.051948998123407364, 1.7458951473236084, 0.10688997805118561], "min" : [0.012577294372022152, 1.706583857536316, 0.08732256293296814], "name" : "POSITION"}, {"bufferView" : 1, "byteOffset" : 12, "componentType" : 5126, "count" : 496, "type" : "VEC2", "max" : [0.9646214246749878, 1.9818061590194702], "min" : [0.019903719425201416, 1.0209906101226807], "name" : "TEXCOORD_0"}, {"bufferView" : 1, "byteOffset" : 20, "componentType" : 5126, "count" : 496, "type" : "VEC3", "max" : [0.9406006932258606, 0.9512309432029724, 1.0000042915344238], "min" : [-0.9471116065979004, -0.9485120177268982, -1.0000042915344238], "name" : "NORMAL"}, {"bufferView" : 0, "byteOffset" : 1236, "componentType" : 5123, "count" : 618, "type" : "SCALAR", "max" : [500], "min" : [0]}, {"bufferView" : 2, "byteOffset" : 0, "componentType" : 5126, "count" : 501, "type" : "VEC3", "max" : [-0.012854192405939102, 1.745935320854187, 0.106890007853508], "min" : [-0.05206938832998276, 1.7065428495407104, 0.08732260018587112], "name" : "POSITION"}, {"bufferView" : 2, "byteOffset" : 12, "componentType" : 5126, "count" : 501, "type" : "VEC2", "max" : [0.9585750699043274, 1.966354489326477], "min" : [0.006885886192321777, 1.022762417793274], "name" : "TEXCOORD_0"}, {"bufferView" : 2, "byteOffset" : 20, "componentType" : 5126, "count" : 501, "type" : "VEC3", "max" : [0.9310468435287476, 0.9478710293769836, 1.0000042915344238], "min" : [-0.9491647481918335, -0.9364743232727051, -1.0000042915344238], "name" : "NORMAL"}, {"bufferView" : 0, "byteOffset" : 2472, "componentType" : 5123, "count" : 12282, "type" : "SCALAR", "max" : [9739], "min" : [0]}, {"bufferView" : 3, "byteOffset" : 0, "componentType" : 5126, "count" : 9740, "type" : "VEC3", "max" : [0.09579431265592575, 1.8330844640731812, 0.13974709808826447], "min" : [-0.09610731154680252, 1.5206061601638794, -0.08657769858837128], "name" : "POSITION"}, {"bufferView" : 3, "byteOffset" : 12, "componentType" : 5126, "count" : 9740, "type" : "VEC2", "max" : [0.9943000078201294, 1.9807000160217285], "min" : [0.004999999888241291, 1.004349946975708], "name" : "TEXCOORD_0"}, {"bufferView" : 3, "byteOffset" : 20, "componentType" : 5126, "count" : 9740, "type" : "VEC3", "max" : [0.9992218613624573, 0.9998693466186523, 0.9999847412109375], "min" : [-0.9992175102233887, -0.9999938011169434, -0.9999959468841553], "name" : "NORMAL"}, {"bufferView" : 0, "byteOffset" : 27036, "componentType" : 5123, "count" : 300, "type" : "SCALAR", "max" : [241], "min" : [0]}, {"bufferView" : 4, "byteOffset" : 0, "componentType" : 5126, "count" : 242, "type" : "VEC3", "max" : [0.027834273874759674, 1.6794216632843018, 0.1148628368973732], "min" : [-0.027834273874759674, 1.6448477506637573, 0.04856402799487114], "name" : "POSITION"}, {"bufferView" : 4, "byteOffset" : 12, "componentType" : 5126, "count" : 242, "type" : "VEC2", "max" : [0.9808249473571777, 1.9832134246826172], "min" : [0.051069796085357666, 1.028295874595642], "name" : "TEXCOORD_0"}, {"bufferView" : 4, "byteOffset" : 20, "componentType" : 5126, "count" : 242, "type" : "VEC3", "max" : [0.9971882700920105, 0.8775893449783325, 0.9974808692932129], "min" : [-0.9971882700920105, -0.9858413934707642, -0.7650182843208313], "name" : "NORMAL"}, {"bufferView" : 0, "byteOffset" : 27636, "componentType" : 5123, "count" : 8757, "type" : "SCALAR", "max" : [7292], "min" : [0]}, {"bufferView" : 5, "byteOffset" : 0, "componentType" : 5126, "count" : 7293, "type" : "VEC3", "max" : [0.09497568011283875, 1.8570337295532227, 0.14883509278297424], "min" : [-0.09929926693439484, 1.6273796558380127, -0.0900489091873169], "name" : "POSITION"}, {"bufferView" : 5, "byteOffset" : 12, "componentType" : 5126, "count" : 7293, "type" : "VEC3", "max" : [0.9998418688774109, 0.999496340751648, 0.9992684721946716], "min" : [-0.9998454451560974, -0.99923175573349, -0.9999983310699463], "name" : "NORMAL"}, {"bufferView" : 5, "byteOffset" : 24, "componentType" : 5126, "count" : 7293, "type" : "VEC2", "max" : [0.990181028842926, 1.998046875], "min" : [0.0019531213911250234, 1.001953125], "name" : "TEXCOORD_0"}, {"bufferView" : 0, "byteOffset" : 45152, "componentType" : 5123, "count" : 1680, "type" : "SCALAR", "max" : [1392], "min" : [0]}, {"bufferView" : 6, "byteOffset" : 0, "componentType" : 5126, "count" : 1393, "type" : "VEC3", "max" : [0.08158464729785919, 1.7374935150146484, 0.12615077197551727], "min" : [-0.08158464729785919, 1.6953554153442383, -0.0018571318360045552], "name" : "POSITION"}, {"bufferView" : 6, "byteOffset" : 12, "componentType" : 5126, "count" : 1393, "type" : "VEC3", "max" : [1.0000008344650269, 0.9986981153488159, 0.9983014464378357], "min" : [-1.0000008344650269, -0.9986991286277771, -0.9982932209968567], "name" : "NORMAL"}, {"bufferView" : 6, "byteOffset" : 24, "componentType" : 5126, "count" : 1393, "type" : "VEC2", "max" : [0.998046875, 1.998046875], "min" : [0.0019558214116841555, 1.1060324907302856], "name" : "TEXCOORD_0"}, {"bufferView" : 0, "byteOffset" : 48512, "componentType" : 5123, "count" : 6294, "type" : "SCALAR", "max" : [5033], "min" : [0]}, {"bufferView" : 7, "byteOffset" : 0, "componentType" : 5126, "count" : 5034, "type" : "VEC3", "max" : [0.531463623046875, 1.3544175624847412, 0.14859217405319214], "min" : [-0.5314701795578003, 0.10006243735551834, -0.11516406387090683], "name" : "POSITION"}, {"bufferView" : 7, "byteOffset" : 12, "componentType" : 5126, "count" : 5034, "type" : "VEC3", "max" : [0.999366044998169, 0.8005262613296509, 0.9985233545303345], "min" : [-0.9993663430213928, -0.9900041818618774, -0.9918133020401001], "name" : "NORMAL"}, {"bufferView" : 7, "byteOffset" : 24, "componentType" : 5126, "count" : 5034, "type" : "VEC4", "max" : [0.9997001886367798, 0.9990330934524536, 0.999238908290863, 1], "min" : [-0.9981920123100281, -0.9887911677360535, -0.9998924732208252, 1], "name" : "TANGENT"}, {"bufferView" : 7, "byteOffset" : 40, "componentType" : 5126, "count" : 5034, "type" : "VEC2", "max" : [0.9857610464096069, 1.9892195463180542], "min" : [0.018731044605374336, 1.0183696746826172], "name" : "TEXCOORD_0"}, {"bufferView" : 0, "byteOffset" : 61100, "componentType" : 5123, "count" : 4416, "type" : "SCALAR", "max" : [3623], "min" : [0]}, {"bufferView" : 8, "byteOffset" : 0, "componentType" : 5126, "count" : 3624, "type" : "VEC3", "max" : [0.20601648092269897, 1.0938843488693237, 0.13319401443004608], "min" : [-0.2061149924993515, 0.15630270540714264, -0.12276722490787506], "name" : "POSITION"}, {"bufferView" : 8, "byteOffset" : 12, "componentType" : 5126, "count" : 3624, "type" : "VEC3", "max" : [0.99976646900177, 0.9957489967346191, 0.9999328255653381], "min" : [-0.998443603515625, -0.9951614737510681, -0.9999797940254211], "name" : "NORMAL"}, {"bufferView" : 8, "byteOffset" : 24, "componentType" : 5126, "count" : 3624, "type" : "VEC4", "max" : [0.9999465346336365, 0.9322771430015564, 0.9998893141746521, 1], "min" : [-0.999945878982544, -0.9299660921096802, -0.9997669458389282, 1], "name" : "TANGENT"}, {"bufferView" : 8, "byteOffset" : 40, "componentType" : 5126, "count" : 3624, "type" : "VEC2", "max" : [1.0038964748382568, 1.9878599643707275], "min" : [0.018504273146390915, 1.081436038017273], "name" : "TEXCOORD_0"}, {"bufferView" : 0, "byteOffset" : 69932, "componentType" : 5123, "count" : 4248, "type" : "SCALAR", "max" : [3417], "min" : [0]}, {"bufferView" : 9, "byteOffset" : 0, "componentType" : 5126, "count" : 3418, "type" : "VEC3", "max" : [0.23106250166893005, 0.16626611351966858, 0.23039546608924866], "min" : [-0.23106609284877777, 0.007157423067837954, -0.1322980374097824], "name" : "POSITION"}, {"bufferView" : 9, "byteOffset" : 12, "componentType" : 5126, "count" : 3418, "type" : "VEC3", "max" : [0.9998822212219238, 0.9960196614265442, 0.9893698692321777], "min" : [-0.9998820424079895, -0.9932185411453247, -0.994718611240387], "name" : "NORMAL"}, {"bufferView" : 9, "byteOffset" : 24, "componentType" : 5126, "count" : 3418, "type" : "VEC4", "max" : [0.9941595196723938, 0.9962146878242493, 0.9614145159721375, 1], "min" : [-0.9941557049751282, -0.933790385723114, -0.9998020529747009, -1], "name" : "TANGENT"}, {"bufferView" : 9, "byteOffset" : 40, "componentType" : 5126, "count" : 3418, "type" : "VEC2", "max" : [0.9751015901565552, 1.9874061346054077], "min" : [0.026590295135974884, 1.0365428924560547], "name" : "TEXCOORD_0"}, {"bufferView" : 0, "byteOffset" : 78428, "componentType" : 5123, "count" : 4815, "type" : "SCALAR", "max" : [3848], "min" : [0]}, {"bufferView" : 10, "byteOffset" : 0, "componentType" : 5126, "count" : 3849, "type" : "VEC3", "max" : [0.29571858048439026, 1.624843955039978, 0.13859394192695618], "min" : [-0.29628580808639526, 1.0468138456344604, -0.1351175755262375], "name" : "POSITION"}, {"bufferView" : 10, "byteOffset" : 12, "componentType" : 5126, "count" : 3849, "type" : "VEC3", "max" : [0.9997022151947021, 0.957107663154602, 0.9998321533203125], "min" : [-0.9992930889129639, -0.9990935921669006, -0.999441921710968], "name" : "NORMAL"}, {"bufferView" : 10, "byteOffset" : 24, "componentType" : 5126, "count" : 3849, "type" : "VEC4", "max" : [0.9999218583106995, 0.9968116879463196, 0.9996136426925659, 1], "min" : [-0.9999874234199524, -0.9912732839584351, -0.999950110912323, 1], "name" : "TANGENT"}, {"bufferView" : 10, "byteOffset" : 40, "componentType" : 5126, "count" : 3849, "type" : "VEC2", "max" : [0.9936985969543457, 1.9846851825714111], "min" : [0.0032931119203567505, 1.0089187622070312], "name" : "TEXCOORD_0"}], "asset" : {"generator" : "Aspose.3D 24.1.0", "version" : "2.0"}, "buffers" : [{"uri" : "data:application/octet-stream;base64,", "byteLength" : 1813368}], "bufferViews" : [{"buffer" : 0, "byteOffset" : 0, "byteLength" : 88060, "target" : 34963}, {"buffer" : 0, "byteOffset" : 88064, "byteLength" : 19776, "byteStride" : 32, "target" : 34962}, {"buffer" : 0, "byteOffset" : 107844, "byteLength" : 19776, "byteStride" : 32, "target" : 34962}, {"buffer" : 0, "byteOffset" : 127624, "byteLength" : 393024, "byteStride" : 32, "target" : 34962}, {"buffer" : 0, "byteOffset" : 520652, "byteLength" : 9600, "byteStride" : 32, "target" : 34962}, {"buffer" : 0, "byteOffset" : 530256, "byteLength" : 280224, "byteStride" : 32, "target" : 34962}, {"buffer" : 0, "byteOffset" : 810484, "byteLength" : 53760, "byteStride" : 32, "target" : 34962}, {"buffer" : 0, "byteOffset" : 864248, "byteLength" : 302112, "byteStride" : 48, "target" : 34962}, {"buffer" : 0, "byteOffset" : 1166364, "byteLength" : 211968, "byteStride" : 48, "target" : 34962}, {"buffer" : 0, "byteOffset" : 1378336, "byteLength" : 203904, "byteStride" : 48, "target" : 34962}, {"buffer" : 0, "byteOffset" : 1582244, "byteLength" : 231120, "byteStride" : 48, "target" : 34962}], "images" : [{"uri" : "data:image/jpeg;base64,"}, {"uri" : "data:image/jpeg;base64,"}, {"uri" : "data:image/jpeg;base64,"}, {"uri" : "data:image/jpeg;base64,"}, {"uri" : "data:image/jpeg;base64,"}, {"uri" : "data:image/png;base64,"}, {"uri" : "data:image/jpeg;base64,"}, {"uri" : "data:image/jpeg;base64,"}, {"uri" : "data:image/jpeg;base64,"}, {"uri" : "data:image/jpeg;base64,"}, {"uri" : "data:image/jpeg;base64,"}, {"uri" : "data:image/jpeg;base64,"}, {"uri" : "data:image/jpeg;base64,"}, {"uri" : "data:image/jpeg;base64,"}], "materials" : [{"name" : "Wolf3D_Eye", "pbrMetallicRoughness" : {"baseColorFactor" : [1, 1, 1, 1], "baseColorTexture" : {"index" : 0, "texCoord" : 0}, "metallicFactor" : 0, "roughnessFactor" : 1}, "emissiveFactor" : [0, 0, 0], "alphaMode" : "OPAQUE", "doubleSided" : false}, {"name" : "Wolf3D_Eye", "pbrMetallicRoughness" : {"baseColorFactor" : [1, 1, 1, 1], "baseColorTexture" : {"index" : 0, "texCoord" : 0}, "metallicFactor" : 0, "roughnessFactor" : 1}, "emissiveFactor" : [0, 0, 0], "alphaMode" : "OPAQUE", "doubleSided" : false}, {"name" : "Wolf3D_Skin", "pbrMetallicRoughness" : {"baseColorFactor" : [1, 1, 1, 1], "baseColorTexture" : {"index" : 1, "texCoord" : 0}, "metallicFactor" : 0, "roughnessFactor" : 0.699999988079071}, "emissiveFactor" : [0, 0, 0], "alphaMode" : "OPAQUE", "doubleSided" : false}, {"name" : "Wolf3D_Teeth", "pbrMetallicRoughness" : {"baseColorFactor" : [1, 1, 1, 1], "baseColorTexture" : {"index" : 2, "texCoord" : 0}, "metallicFactor" : 0, "roughnessFactor" : 1}, "emissiveFactor" : [0, 0, 0], "alphaMode" : "OPAQUE", "doubleSided" : true}, {"name" : "Wolf3D_Hair", "pbrMetallicRoughness" : {"baseColorFactor" : [1, 1, 1, 1], "baseColorTexture" : {"index" : 4, "texCoord" : 0}, "metallicFactor" : 0, "roughnessFactor" : 1}, "normalTexture" : {"index" : 3, "texCoord" : 0, "scale" : 1}, "emissiveFactor" : [0, 0, 0], "alphaMode" : "OPAQUE", "doubleSided" : true}, {"name" : "Wolf3D_Glasses", "pbrMetallicRoughness" : {"baseColorFactor" : [1, 1, 1, 1], "baseColorTexture" : {"index" : 5, "texCoord" : 0}, "metallicFactor" : 0, "roughnessFactor" : 0.41363635659217834}, "emissiveFactor" : [0, 0, 0], "alphaMode" : "OPAQUE", "doubleSided" : false}, {"name" : "Wolf3D_Body", "pbrMetallicRoughness" : {"baseColorFactor" : [1, 1, 1, 1], "baseColorTexture" : {"index" : 7, "texCoord" : 0}, "metallicFactor" : 0, "roughnessFactor" : 0.5527864098548889}, "normalTexture" : {"index" : 6, "texCoord" : 0, "scale" : 1}, "emissiveFactor" : [0, 0, 0], "alphaMode" : "OPAQUE", "doubleSided" : false}, {"name" : "Wolf3D_Outfit_Bottom", "pbrMetallicRoughness" : {"baseColorFactor" : [1, 1, 1, 1], "baseColorTexture" : {"index" : 9, "texCoord" : 0}, "metallicFactor" : 0.5, "roughnessFactor" : 0.8763158321380615}, "normalTexture" : {"index" : 8, "texCoord" : 0, "scale" : 1}, "emissiveFactor" : [0, 0, 0], "alphaMode" : "OPAQUE", "doubleSided" : false}, {"name" : "Wolf3D_Outfit_Footwear", "pbrMetallicRoughness" : {"baseColorFactor" : [1, 1, 1, 1], "baseColorTexture" : {"index" : 11, "texCoord" : 0}, "metallicFactor" : 0, "roughnessFactor" : 0.5527864098548889}, "normalTexture" : {"index" : 10, "texCoord" : 0, "scale" : 1}, "emissiveFactor" : [0, 0, 0], "alphaMode" : "OPAQUE", "doubleSided" : false}, {"name" : "Wolf3D_Outfit_Top", "pbrMetallicRoughness" : {"baseColorFactor" : [1, 1, 1, 1], "baseColorTexture" : {"index" : 13, "texCoord" : 0}, "metallicFactor" : 0, "roughnessFactor" : 0.7954334616661072}, "normalTexture" : {"index" : 12, "texCoord" : 0, "scale" : 1}, "emissiveFactor" : [0, 0, 0], "alphaMode" : "OPAQUE", "doubleSided" : false}], "meshes" : [{"primitives" : [{"attributes" : {"POSITION" : 1, "TEXCOORD_0" : 2, "NORMAL" : 3}, "indices" : 0, "material" : 0, "mode" : 4}]}, {"primitives" : [{"attributes" : {"POSITION" : 5, "TEXCOORD_0" : 6, "NORMAL" : 7}, "indices" : 4, "material" : 1, "mode" : 4}]}, {"primitives" : [{"attributes" : {"POSITION" : 9, "TEXCOORD_0" : 10, "NORMAL" : 11}, "indices" : 8, "material" : 2, "mode" : 4}]}, {"primitives" : [{"attributes" : {"POSITION" : 13, "TEXCOORD_0" : 14, "NORMAL" : 15}, "indices" : 12, "material" : 3, "mode" : 4}]}, {"primitives" : [{"attributes" : {"POSITION" : 17, "NORMAL" : 18, "TEXCOORD_0" : 19}, "indices" : 16, "material" : 4, "mode" : 4}]}, {"primitives" : [{"attributes" : {"POSITION" : 21, "NORMAL" : 22, "TEXCOORD_0" : 23}, "indices" : 20, "material" : 5, "mode" : 4}]}, {"primitives" : [{"attributes" : {"POSITION" : 25, "NORMAL" : 26, "TANGENT" : 27, "TEXCOORD_0" : 28}, "indices" : 24, "material" : 6, "mode" : 4}]}, {"primitives" : [{"attributes" : {"POSITION" : 30, "NORMAL" : 31, "TANGENT" : 32, "TEXCOORD_0" : 33}, "indices" : 29, "material" : 7, "mode" : 4}]}, {"primitives" : [{"attributes" : {"POSITION" : 35, "NORMAL" : 36, "TANGENT" : 37, "TEXCOORD_0" : 38}, "indices" : 34, "material" : 8, "mode" : 4}]}, {"primitives" : [{"attributes" : {"POSITION" : 40, "NORMAL" : 41, "TANGENT" : 42, "TEXCOORD_0" : 43}, "indices" : 39, "material" : 9, "mode" : 4}]}], "nodes" : [{"mesh" : 0, "name" : "EyeLeft"}, {"mesh" : 1, "name" : "EyeRight"}, {"mesh" : 2, "name" : "Wolf3D_Head"}, {"mesh" : 3, "name" : "Wolf3D_Teeth"}, {"mesh" : 4, "name" : "Wolf3D_Hair"}, {"mesh" : 5, "name" : "Wolf3D_Glasses"}, {"mesh" : 6, "name" : "Wolf3D_Body"}, {"mesh" : 7, "name" : "Wolf3D_Outfit_Bottom"}, {"mesh" : 8, "name" : "Wolf3D_Outfit_Footwear"}, {"mesh" : 9, "name" : "Wolf3D_Outfit_Top"}, {"children" : [0, 1, 2, 3, 4, 5, 6, 7, 8, 9], "name" : "Armature"}], "samplers" : [{"magFilter" : 9728, "minFilter" : 9728, "wrapS" : 10497, "wrapT" : 10497}, {"magFilter" : 9728, "minFilter" : 9728, "wrapS" : 10497, "wrapT" : 10497}, {"magFilter" : 9729, "minFilter" : 9987, "wrapS" : 10497, "wrapT" : 10497}, {"magFilter" : 9729, "minFilter" : 9987, "wrapS" : 10497, "wrapT" : 10497}, {"magFilter" : 9728, "minFilter" : 9728, "wrapS" : 10497, "wrapT" : 10497}, {"magFilter" : 9729, "minFilter" : 9987, "wrapS" : 10497, "wrapT" : 10497}, {"magFilter" : 9729, "minFilter" : 9987, "wrapS" : 10497, "wrapT" : 10497}, {"magFilter" : 9728, "minFilter" : 9728, "wrapS" : 10497, "wrapT" : 10497}, {"magFilter" : 9729, "minFilter" : 9987, "wrapS" : 10497, "wrapT" : 10497}, {"magFilter" : 9729, "minFilter" : 9987, "wrapS" : 10497, "wrapT" : 10497}, {"magFilter" : 9729, "minFilter" : 9987, "wrapS" : 10497, "wrapT" : 10497}, {"magFilter" : 9729, "minFilter" : 9987, "wrapS" : 10497, "wrapT" : 10497}, {"magFilter" : 9729, "minFilter" : 9987, "wrapS" : 10497, "wrapT" : 10497}, {"magFilter" : 9729, "minFilter" : 9987, "wrapS" : 10497, "wrapT" : 10497}], "scene" : 0, "scenes" : [{"nodes" : [10]}], "textures" : [{"sampler" : 0, "source" : 0, "name" : ""}, {"sampler" : 1, "source" : 1, "name" : ""}, {"sampler" : 2, "source" : 2, "name" : ""}, {"sampler" : 3, "source" : 3, "name" : ""}, {"sampler" : 4, "source" : 4, "name" : ""}, {"sampler" : 5, "source" : 5, "name" : ""}, {"sampler" : 6, "source" : 6, "name" : ""}, {"sampler" : 7, "source" : 7, "name" : ""}, {"sampler" : 8, "source" : 8, "name" : ""}, {"sampler" : 9, "source" : 9, "name" : ""}, {"sampler" : 10, "source" : 10, "name" : ""}, {"sampler" : 11, "source" : 11, "name" : ""}, {"sampler" : 12, "source" : 12, "name" : ""}, {"sampler" : 13, "source" : 13, "name" : ""}]}